{
	"asset":{
		"generator":"Khronos glTF Blender I/O v4.4.56",
		"version":"2.0"
	},
	"scene":0,
	"scenes":[
		{
			"name":"Scene",
			"nodes":[
				0
			]
		}
	],
	"nodes":[
		{
			"mesh":0,
			"name":"ikea_office_workplace_5",
			"rotation":[
				0.7071068286895752,
				0,
				0,
				0.7071068286895752
			]
		}
	],
	"meshes":[
		{
			"name":"ikea_office_workplace_5",
			"primitives":[
				{
					"attributes":{
						"POSITION":0,
						"NORMAL":1,
						"TEXCOORD_0":2
					},
					"indices":3
				}
			]
		}
	],
	"accessors":[
		{
			"bufferView":0,
			"componentType":5126,
			"count":289736,
			"max":[
				1048.3160400390625,
				537.7003173828125,
				0.40400001406669617
			],
			"min":[
				-1048.3160400390625,
				-537.7003784179688,
				-2076.68603515625
			],
			"type":"VEC3"
		},
		{
			"bufferView":1,
			"componentType":5126,
			"count":289736,
			"type":"VEC3"
		},
		{
			"bufferView":2,
			"componentType":5126,
			"count":289736,
			"type":"VEC2"
		},
		{
			"bufferView":3,
			"componentType":5125,
			"count":1077756,
			"type":"SCALAR"
		}
	],
	"bufferViews":[
		{
			"buffer":0,
			"byteLength":3476832,
			"byteOffset":0,
			"target":34962
		},
		{
			"buffer":0,
			"byteLength":3476832,
			"byteOffset":3476832,
			"target":34962
		},
		{
			"buffer":0,
			"byteLength":2317888,
			"byteOffset":6953664,
			"target":34962
		},
		{
			"buffer":0,
			"byteLength":4311024,
			"byteOffset":9271552,
			"target":34963
		}
	],
	"buffers":[
		{
			"byteLength":13582576,
			"uri":"bureau.bin"
		}
	]
}
