<svg id="Calque_1" data-name="Calque 1" xmlns="http://www.w3.org/2000/svg" viewBox="0 0 260.8 268.68"><defs><style>.cls-1{fill:none;stroke:#1d1d1b;stroke-miterlimit:10;stroke-width:2px;}.cls-2{fill:#1d1d1b;}</style></defs><line class="cls-1" x1="173.75" y1="267.68" x2="254.94" y2="267.68"/><line class="cls-1" x1="7.44" y1="1" x2="88.63" y2="1"/><path class="cls-2" d="M269.77,206.26H174.43v1.84c0,25.76,19.51,47.3,46,47.3a44.93,44.93,0,0,0,37.18-19.14l2.76,1.84a48.31,48.31,0,0,1-39.94,20.24c-28.72,0-49.33-22.64-49.33-50.24S191.73,158,220.45,158c27.79,0,48.22,21.17,49.32,47.67Zm-95.15-2.95h91.66c-2.21-23.56-21-42.33-45.83-42.33S176.83,179.94,174.62,203.31Z" transform="translate(-171.12 -134.17)"/><path class="cls-2" d="M286.34,159h3.31v24.3c5.15-17.49,20.43-25.22,38.1-25.22,13.62,0,24.84,4.42,31.84,12.52,5.7,6.44,9.57,17.3,9.57,34v52.82h-3.31V203.86c0-14.17-3.32-24.48-8.47-30.73C351.12,165.4,340.82,161,327.75,161c-9.94,0-18.22,2.76-23.93,7.18-6.44,5-11.59,11.78-13.43,23.74a77.69,77.69,0,0,0-.74,12v53.56h-3.31Z" transform="translate(-171.12 -134.17)"/><path class="cls-2" d="M220.45,276.75c21.9,0,40.12,13.25,46,33.31V277.67h3.31v98.47h-3.31V343.56c-5.89,20.43-24.11,33.5-46,33.5-28.72,0-49.33-22.64-49.33-50.25S191.73,276.75,220.45,276.75Zm0,97.36c25.76,0,46-20.43,46-47.3,0-25.76-19.51-47.11-46-47.11s-46,21.53-46,47.11C174.43,352.58,193.94,374.11,220.45,374.11Z" transform="translate(-171.12 -134.17)"/><path class="cls-2" d="M295.17,376.14h-3.31V328.65c0-14.54.73-20.79,2.21-25.95,4.41-14.54,15.64-25,35.52-25v2.95c-16,0-27.43,7.36-32,22.08-1.84,5.89-2.39,13.44-2.39,26.87Z" transform="translate(-171.12 -134.17)"/><path class="cls-2" d="M382.6,276.75c21.9,0,40.12,13.25,46,33.31V277.67h3.31v98.47h-3.31V343.56c-5.89,20.43-24.11,33.5-46,33.5-28.72,0-49.33-22.64-49.33-50.25S353.88,276.75,382.6,276.75Zm0,97.36c25.76,0,46-20.43,46-47.3,0-25.76-19.51-47.11-46-47.11s-46,21.53-46,47.11C336.58,352.58,356.09,374.11,382.6,374.11Z" transform="translate(-171.12 -134.17)"/><path class="cls-2" d="M429.68,189.69c-.3.39-.75.38-1.16.44a8.52,8.52,0,0,0-3.53,1.42.81.81,0,0,1-.42.19c-.17,0-.26.14-.35.27a11.12,11.12,0,0,0-1.43,3.94,17.74,17.74,0,0,0-.21,3.85c.05,1.31.17,2.62.3,3.93.08.89.16,1.79.18,2.7,0,.67,0,1.34,0,2a22,22,0,0,1-1.91,8.6,19.71,19.71,0,0,1-6.4,8.06,18,18,0,0,1-7.59,3.15,11.21,11.21,0,0,1-2.24.16.58.58,0,0,1-.66-.57,3.69,3.69,0,0,1,0-.58c0-1.51,0-3,0-4.55,0-1,.05-2.06,0-3.09-.09-5.11,0-10.21-.06-15.32,0-2.8-.06-5.59,0-8.39a18.77,18.77,0,0,1,1.42-7.47,14,14,0,0,1,8.4-7.84,12,12,0,0,1,2.14-.46h2.3l.51.08a11.21,11.21,0,0,1,7.88,5.12,11.47,11.47,0,0,0,1.39,1.85c.16.16.29.33.43.5l1,1.38Z" transform="translate(-171.12 -134.17)"/><path class="cls-2" d="M403.33,232.18a13,13,0,0,1-.69,4.63,11.39,11.39,0,0,1-3.46,4.84,10.83,10.83,0,0,1-5.79,2.52c-.29,0-.57,0-.85.05a.72.72,0,0,1-.8-.71c-.12-3,.22-5.82,2-8.3a11.23,11.23,0,0,1,7.82-4.85l.73-.12a.78.78,0,0,1,1,.65A7.25,7.25,0,0,1,403.33,232.18Z" transform="translate(-171.12 -134.17)"/><path class="cls-2" d="M393.05,221.79a11.47,11.47,0,0,1,8.4,3.26,10.82,10.82,0,0,1,1.15,1.29c.42.56.37.88-.18,1.29a12.58,12.58,0,0,1-4.95,2.45,11.35,11.35,0,0,1-10.1-2.49,9.89,9.89,0,0,1-1.53-1.64,2.48,2.48,0,0,1-.3-.49.65.65,0,0,1,.21-.86,13.61,13.61,0,0,1,5.71-2.65A10.17,10.17,0,0,1,393.05,221.79Z" transform="translate(-171.12 -134.17)"/></svg>